<?xml version="1.0" encoding="UTF-8" standalone="no"?>
<svg
   width="470.15063"
   height="516.16321"
   viewBox="0 0 470.15063 516.16321"
   version="1.1"
   id="svg938"
   sodipodi:docname="strong.svg"
   inkscape:version="1.1.2 (b8e25be8, 2022-02-05)"
   xmlns:inkscape="http://www.inkscape.org/namespaces/inkscape"
   xmlns:sodipodi="http://sodipodi.sourceforge.net/DTD/sodipodi-0.dtd"
   xmlns="http://www.w3.org/2000/svg"
   xmlns:svg="http://www.w3.org/2000/svg">
  <defs
     id="defs942">
    <rect
       x="95.823853"
       y="165.34312"
       width="127.76514"
       height="26.304586"
       id="rect1554" />
    <rect
       x="95.823853"
       y="165.34312"
       width="127.76514"
       height="26.304586"
       id="rect1554-6" />
    <rect
       x="95.823853"
       y="165.34312"
       width="127.76514"
       height="26.304586"
       id="rect1554-5" />
  </defs>
  <sodipodi:namedview
     id="namedview940"
     pagecolor="#ffffff"
     bordercolor="#666666"
     borderopacity="1.0"
     inkscape:pageshadow="2"
     inkscape:pageopacity="0.0"
     inkscape:pagecheckerboard="0"
     showgrid="false"
     inkscape:zoom="0.53222656"
     inkscape:cx="331.62569"
     inkscape:cy="204.8"
     inkscape:window-width="1312"
     inkscape:window-height="964"
     inkscape:window-x="1694"
     inkscape:window-y="57"
     inkscape:window-maximized="0"
     inkscape:current-layer="svg938"
     fit-margin-top="10"
     fit-margin-left="10"
     fit-margin-right="10"
     fit-margin-bottom="10" />
  <path
     d="m 150.29665,191.16319 a 54.104,54.104 0 0 0 50.437,-28.362 43.264,43.264 0 0 0 -2.441,12.719 428.257,428.257 0 0 0 -2.996,60.643 H 45.296649 a 578.231,578.231 0 0 1 4.504,-81.857 193.087,193.087 0 0 1 15.372,-55.718003 96.01,96.01 0 0 1 85.124001,-57.425 V 191.16319"
     fill="#ff938d"
     id="path920" />
  <path
     d="m 460.15065,154.72419 -4.499,10.864 -11.885,28.704 -28.701,11.891 -10.862,4.5 -28.707,11.895 -28.707,-11.895 -10.862,-4.5 -28.702,-11.891 -11.885,-28.705 -4.499,-10.865 138.59,-57.384003 4.499,10.865003 -69.295,28.692 28.707,-69.288003 10.861,4.5 -28.707,69.288003 -28.707,-69.288003 10.861,-4.5 28.707,69.288003 -69.294,-28.693 4.498,-10.864003 138.589,57.386003"
     fill="#ff938d"
     id="path922" />
  <path
     d="m 150.29665,116.16319 c -30,0 -30,90 -30,120"
     stroke-width="1"
     stroke="#000000"
     fill="none"
     id="path924" />
  <path
     d="m 390.85635,126.03139 -4.4985,10.8639 -10.8612,4.5 -10.8612,-4.5 -4.4988,-10.8651"
     stroke-width="1"
     stroke="#000000"
     fill="none"
     id="path926" />
  <g
     transform="translate(-89.703351,26.163187)"
     id="g936">
    <path
       d="m 240,435 v -62.482 a 15.348,15.348 0 0 0 6.517,9.973 97.514,97.514 0 0 0 15.425,9.994 450.783,450.783 0 0 0 23.066,11.581 l -1.27,-0.601 a 112.041,112.041 0 0 0 0.706,0.331 l 6.085,2.637 a 3.899,3.899 0 0 1 -0.092,0.205 A 54.104,54.104 0 0 1 240,435 v -62.482 a 15.348,15.348 0 0 0 6.517,9.973 97.514,97.514 0 0 0 15.425,9.994 450.783,450.783 0 0 0 23.066,11.581 l -1.27,-0.601 a 112.041,112.041 0 0 0 0.706,0.331 l 6.085,2.637 A 54.37,54.37 0 0 0 287.996,419.357 428.257,428.257 0 0 0 285,480 H 135 a 578.231,578.231 0 0 1 4.504,-81.857 193.087,193.087 0 0 1 15.372,-55.718 A 96.01,96.01 0 0 1 240,285 v 150"
       fill="#ff938d"
       id="path928" />
    <path
       d="m 549.854,398.561 -4.499,10.864 -11.885,28.704 -28.701,11.891 -10.862,4.5 -28.707,11.895 -28.707,-11.895 -10.862,-4.5 -28.702,-11.891 -11.885,-28.705 -4.499,-10.865 138.59,-57.384 4.499,10.865 -69.295,28.692 28.707,-69.288 a 75,75 0 0 1 40.588,40.596 l -69.295,28.692 28.707,-69.288 10.861,4.5 -28.707,69.288 -28.707,-69.288 a 75,75 0 0 1 57.414,0 l -28.707,69.288 -28.707,-69.288 10.861,-4.5 28.707,69.288 -69.294,-28.693 a 75,75 0 0 1 40.587,-40.595 l 28.707,69.288 -69.294,-28.693 4.498,-10.864 138.589,57.386"
       fill="#ff938d"
       id="path930" />
    <path
       d="m 240,360 c -30,0 -30,90 -30,120"
       stroke-width="1"
       stroke="#000000"
       fill="none"
       id="path932" />
    <path
       d="m 480.5597,369.8682 -4.4985,10.8639 -10.8612,4.5 -10.8612,-4.5 -4.4988,-10.8651"
       stroke-width="1"
       stroke="#000000"
       fill="none"
       id="path934" />
  </g>
  <text
     xml:space="preserve"
     id="text1552"
     style="font-size:18.6667px;line-height:1.25;font-family:'Linux Libertine O';-inkscape-font-specification:'Linux Libertine O';white-space:pre;shape-inside:url(#rect1554-6)"
     transform="translate(-85.945552,-159.28635)"><tspan
       x="95.824219"
       y="182.31571"
       id="tspan9895">weakly correct</tspan></text>
  <text
     xml:space="preserve"
     id="text1552-7"
     style="font-size:18.6667px;line-height:1.25;font-family:'Linux Libertine O';-inkscape-font-specification:'Linux Libertine O';white-space:pre;shape-inside:url(#rect1554-5)"
     transform="translate(-85.945552,110.71384)"><tspan
       x="95.824219"
       y="182.31571"
       id="tspan9897">strongly correct</tspan></text>
</svg>
